<?xml version="1.0" encoding="UTF-8" standalone="no"?>
<!-- Created with Inkscape (http://www.inkscape.org/) -->

<svg
   width="44.161564mm"
   height="50.993382mm"
   viewBox="0 0 44.161564 50.993382"
   version="1.1"
   id="svg1"
   xml:space="preserve"
   inkscape:version="1.3.2 (091e20ef0f, 2023-11-25)"
   sodipodi:docname="gsmc_logo_hex.svg"
   xmlns:inkscape="http://www.inkscape.org/namespaces/inkscape"
   xmlns:sodipodi="http://sodipodi.sourceforge.net/DTD/sodipodi-0.dtd"
   xmlns:xlink="http://www.w3.org/1999/xlink"
   xmlns="http://www.w3.org/2000/svg"
   xmlns:svg="http://www.w3.org/2000/svg"><sodipodi:namedview
     id="namedview1"
     pagecolor="#ffffff"
     bordercolor="#000000"
     borderopacity="0.25"
     inkscape:showpageshadow="2"
     inkscape:pageopacity="0.0"
     inkscape:pagecheckerboard="0"
     inkscape:deskcolor="#d1d1d1"
     inkscape:document-units="mm"
     inkscape:zoom="1.6311518"
     inkscape:cx="-130.27604"
     inkscape:cy="444.16467"
     inkscape:window-width="3840"
     inkscape:window-height="2066"
     inkscape:window-x="-11"
     inkscape:window-y="-11"
     inkscape:window-maximized="1"
     inkscape:current-layer="layer1" /><defs
     id="defs1"><rect
       x="55.175735"
       y="300.40125"
       width="448.14957"
       height="69.276199"
       id="rect2" /><linearGradient
       id="linearGradient23"
       inkscape:collect="always"><stop
         style="stop-color:#f5be5a;stop-opacity:1;"
         offset="0.22493225"
         id="stop24" /><stop
         style="stop-color:#f5be5a;stop-opacity:0;"
         offset="1"
         id="stop25" /></linearGradient><linearGradient
       id="linearGradient19"
       inkscape:collect="always"><stop
         style="stop-color:#f5be5a;stop-opacity:1;"
         offset="0.26558265"
         id="stop20" /><stop
         style="stop-color:#f5be5a;stop-opacity:0.57647059;"
         offset="0.65311652"
         id="stop22" /><stop
         style="stop-color:#f5be5a;stop-opacity:0;"
         offset="1"
         id="stop21" /></linearGradient><linearGradient
       id="linearGradient18"
       inkscape:collect="always"><stop
         style="stop-color:#f5be5a;stop-opacity:1;"
         offset="0.07859079"
         id="stop18" /><stop
         style="stop-color:#f5be5a;stop-opacity:0.69019608;"
         offset="0.56639564"
         id="stop23" /><stop
         style="stop-color:#f5be5a;stop-opacity:0;"
         offset="1"
         id="stop19" /></linearGradient><radialGradient
       inkscape:collect="always"
       xlink:href="#linearGradient18"
       id="radialGradient19"
       cx="73.085884"
       cy="260.66055"
       fx="73.085884"
       fy="260.66055"
       r="8.9829712"
       gradientTransform="matrix(1,0,0,0.66435107,-47.058098,59.699891)"
       gradientUnits="userSpaceOnUse" /><radialGradient
       inkscape:collect="always"
       xlink:href="#linearGradient19"
       id="radialGradient21"
       cx="44.616962"
       cy="253.29887"
       fx="44.616962"
       fy="253.29887"
       r="12.540627"
       gradientTransform="matrix(1.028697,-0.18824506,0.08078709,0.44147476,-68.801752,122.0822)"
       gradientUnits="userSpaceOnUse" /><radialGradient
       inkscape:collect="always"
       xlink:href="#linearGradient23"
       id="radialGradient25"
       cx="53.772148"
       cy="264.11569"
       fx="53.772148"
       fy="264.11569"
       r="8.7395096"
       gradientTransform="matrix(0.57233319,0.46973739,-0.95468272,0.72046387,233.17501,18.793803)"
       gradientUnits="userSpaceOnUse" /><rect
       x="55.175735"
       y="300.40125"
       width="448.14957"
       height="69.276199"
       id="rect2-6" /><rect
       x="55.175735"
       y="300.40125"
       width="448.14957"
       height="69.276199"
       id="rect2-6-7" /><rect
       x="55.175735"
       y="300.40125"
       width="309.30072"
       height="373.89093"
       id="rect2-6-5" /></defs><g
     inkscape:label="Ebene 1"
     inkscape:groupmode="layer"
     id="layer1"
     transform="translate(-51.919217,-10.51876)"><g
       id="g4"
       transform="translate(-47.058098,-27.790544)"><g
         id="g5" /></g><g
       id="g2"
       transform="matrix(0.80946169,0,0,0.80946169,17.71692,4.0641228)"
       style="stroke-width:1.23539"
       inkscape:export-filename="gsmc2024_logo_hex.png"
       inkscape:export-xdpi="300"
       inkscape:export-ydpi="300"><path
         sodipodi:type="star"
         style="fill:#e9e9e9;fill-opacity:1;stroke-width:0.176574;stroke-linecap:round"
         id="path1"
         inkscape:flatsided="true"
         sodipodi:sides="6"
         sodipodi:cx="28.759218"
         sodipodi:cy="90.99781"
         sodipodi:r1="34.631153"
         sodipodi:r2="29.991461"
         sodipodi:arg1="0.52359878"
         sodipodi:arg2="1.0471976"
         inkscape:rounded="0"
         inkscape:randomized="0"
         d="m 58.750676,108.31339 -29.991458,17.31557 -29.9914582,-17.31557 10e-8,-34.631156 29.9914581,-17.315577 29.991459,17.315577 z"
         transform="matrix(0.90953743,0,0,0.90953743,43.373907,-43.293597)" /><g
         id="g1"
         transform="matrix(0.31480232,0,0,0.31480232,66.533477,-20.938611)"
         style="stroke-width:3.92434"><path
           id="path3-7"
           style="fill:#f5be5a;fill-opacity:1;stroke-width:2.02903"
           d="m 56.498362,131.52417 a 3.4288471,3.4288471 0 0 0 -4.729555,1.07132 3.4288471,3.4288471 0 0 0 0.498842,4.26468 l -2.388147,3.78576 a 3.4288471,3.4288471 0 0 0 -4.067438,1.39228 3.4288471,3.4288471 0 0 0 -0.50097,1.41661 l -5.110545,0.48025 a 3.4288471,3.4288471 0 0 0 -1.476982,-1.99555 3.4288471,3.4288471 0 0 0 -4.729495,1.07133 3.4288471,3.4288471 0 0 0 1.070482,4.729 3.4288471,3.4288471 0 0 0 4.72896,-1.0705 3.4288471,3.4288471 0 0 0 0.482437,-1.27451 l 5.171861,-0.48701 a 3.4288471,3.4288471 0 0 0 1.434763,1.85939 3.4288471,3.4288471 0 0 0 2.338532,0.48946 l 1.833607,4.82704 a 3.4288471,3.4288471 0 0 0 -1.031662,1.03874 3.4288471,3.4288471 0 0 0 1.071335,4.72952 3.4288471,3.4288471 0 0 0 4.728985,-1.0705 3.4288471,3.4288471 0 0 0 -1.06996,-4.72982 3.4288471,3.4288471 0 0 0 -2.334189,-0.47974 l -1.834833,-4.83248 a 3.4288471,3.4288471 0 0 0 1.027171,-1.04273 3.4288471,3.4288471 0 0 0 -0.4961,-4.27458 l 2.386101,-3.78243 a 3.4288471,3.4288471 0 0 0 4.06675,-1.38571 3.4288471,3.4288471 0 0 0 -1.06995,-4.72982 z" /><path
           id="path3-0-6"
           style="fill:#f5be5a;fill-opacity:1;stroke-width:1.10319"
           d="m -17.807872,119.62431 a 1.8642819,1.8642819 0 0 0 -2.571476,0.58249 1.8642819,1.8642819 0 0 0 0.271229,2.31873 l -1.298458,2.05833 a 1.8642819,1.8642819 0 0 0 -2.211481,0.75699 1.8642819,1.8642819 0 0 0 -0.272387,0.77022 l -2.77862,0.26112 a 1.8642819,1.8642819 0 0 0 -0.803046,-1.085 1.8642819,1.8642819 0 0 0 -2.571464,0.58249 1.8642819,1.8642819 0 0 0 0.582025,2.57118 1.8642819,1.8642819 0 0 0 2.571178,-0.58203 1.8642819,1.8642819 0 0 0 0.262293,-0.69295 l 2.811976,-0.26479 a 1.8642819,1.8642819 0 0 0 0.780084,1.01095 1.8642819,1.8642819 0 0 0 1.271475,0.26612 l 0.996947,2.62449 a 1.8642819,1.8642819 0 0 0 -0.56093,0.56476 1.8642819,1.8642819 0 0 0 0.582499,2.57147 1.8642819,1.8642819 0 0 0 2.571165,-0.58203 1.8642819,1.8642819 0 0 0 -0.581738,-2.57164 1.8642819,1.8642819 0 0 0 -1.26911,-0.26083 l -0.997608,-2.62745 a 1.8642819,1.8642819 0 0 0 0.558477,-0.56693 1.8642819,1.8642819 0 0 0 -0.269735,-2.32411 l 1.297338,-2.05653 a 1.8642819,1.8642819 0 0 0 2.211119,-0.75341 1.8642819,1.8642819 0 0 0 -0.581752,-2.57164 z" /><path
           id="path3-0-5-3"
           style="fill:#f5be5a;fill-opacity:1;stroke-width:1.96521"
           d="m 21.137193,137.8905 a 3.3210075,3.3210075 0 0 0 -4.034461,-2.40482 3.3210075,3.3210075 0 0 0 -2.496334,3.32615 l -4.202924,1.06306 a 3.3210075,3.3210075 0 0 0 -3.78403,-1.73762 3.3210075,3.3210075 0 0 0 -1.297127,0.65987 l -3.907396,-3.07395 a 3.3210075,3.3210075 0 0 0 0.295302,-2.38641 3.3210075,3.3210075 0 0 0 -4.034491,-2.4048 3.3210075,3.3210075 0 0 0 -2.405044,4.03356 3.3210075,3.3210075 0 0 0 4.033567,2.40503 3.3210075,3.3210075 0 0 0 1.189256,-0.57253 l 3.954952,3.11017 a 3.3210075,3.3210075 0 0 0 -0.234051,2.26263 3.3210075,3.3210075 0 0 0 1.314625,1.90439 l -1.934869,4.61174 a 3.3210075,3.3210075 0 0 0 -1.417398,0.0404 3.3210075,3.3210075 0 0 0 -2.404781,4.03452 3.3210075,3.3210075 0 0 0 4.033554,2.40501 3.3210075,3.3210075 0 0 0 2.405974,-4.03378 3.3210075,3.3210075 0 0 0 -1.318066,-1.89467 l 1.937655,-4.61635 a 3.3210075,3.3210075 0 0 0 1.416885,-0.0462 3.3210075,3.3210075 0 0 0 2.504871,-3.33125 l 4.199263,-1.06211 a 3.3210075,3.3210075 0 0 0 3.779137,1.74179 3.3210075,3.3210075 0 0 0 2.405931,-4.0338 z"
           inkscape:transform-center-x="-0.78116781"
           inkscape:transform-center-y="1.2498685" /><g
           id="g6-1-00"
           transform="matrix(0.31478425,0.18089866,-0.18089866,0.31478425,-29.380605,93.778096)"
           style="stroke-width:3.92434"><rect
             style="fill:#ffffff;fill-opacity:1;stroke:none;stroke-width:1.93646;stroke-dasharray:none;stroke-opacity:1"
             id="rect6-97-5"
             width="19.886095"
             height="32.279171"
             x="84.938812"
             y="151.60175"
             transform="matrix(0.89804448,-0.43990466,0,1,0,0)" /><rect
             style="fill:#ffffff;fill-opacity:1;stroke:none;stroke-width:1.93646;stroke-dasharray:none;stroke-opacity:1"
             id="rect6-9-3-5"
             width="19.886095"
             height="32.279171"
             x="124.71098"
             y="169.09772"
             transform="matrix(0.89804448,-0.43990466,0,1,0,0)" /><rect
             style="fill:#dfdfdf;fill-opacity:1;stroke:none;stroke-width:1.93646;stroke-dasharray:none;stroke-opacity:1"
             id="rect6-9-4-4-1"
             width="19.886095"
             height="32.279171"
             x="104.82491"
             y="-91.654999"
             transform="matrix(0.89804448,0.43990466,0,-1,0,0)" /></g><g
           id="g6-1-0-97"
           transform="matrix(0.27748284,-0.23412972,0.23412972,0.27748284,-45.160964,151.05317)"
           style="stroke-width:3.92434"><rect
             style="fill:#f6f6f6;fill-opacity:1;stroke:none;stroke-width:1.93646;stroke-dasharray:none;stroke-opacity:1"
             id="rect6-97-2-5"
             width="19.886095"
             height="32.279171"
             x="84.938812"
             y="151.60175"
             transform="matrix(0.89804448,-0.43990466,0,1,0,0)" /><rect
             style="fill:#f6f6f6;fill-opacity:1;stroke:none;stroke-width:1.93646;stroke-dasharray:none;stroke-opacity:1"
             id="rect6-9-3-3-9"
             width="19.886095"
             height="32.279171"
             x="124.71098"
             y="169.09772"
             transform="matrix(0.89804448,-0.43990466,0,1,0,0)" /><rect
             style="fill:#dfdfdf;fill-opacity:1;stroke:none;stroke-width:1.93646;stroke-dasharray:none;stroke-opacity:1"
             id="rect6-9-4-4-4-0"
             width="19.886095"
             height="32.279171"
             x="104.82491"
             y="-91.654999"
             transform="matrix(0.89804448,0.43990466,0,-1,0,0)" /></g><g
           id="g6-1-0-9-8"
           transform="matrix(-0.14211175,-0.33409235,0.33409235,-0.14211175,2.130182,177.28277)"
           style="stroke-width:3.92434"><rect
             style="fill:#f6f6f6;fill-opacity:1;stroke:none;stroke-width:1.93646;stroke-dasharray:none;stroke-opacity:1"
             id="rect6-97-2-8-5"
             width="19.886095"
             height="32.279171"
             x="84.938812"
             y="151.60175"
             transform="matrix(0.89804448,-0.43990466,0,1,0,0)" /><rect
             style="fill:#f6f6f6;fill-opacity:1;stroke:none;stroke-width:1.93646;stroke-dasharray:none;stroke-opacity:1"
             id="rect6-9-3-3-3-2"
             width="19.886095"
             height="32.279171"
             x="124.71098"
             y="169.09772"
             transform="matrix(0.89804448,-0.43990466,0,1,0,0)" /><rect
             style="fill:#dfdfdf;fill-opacity:1;stroke:none;stroke-width:1.93646;stroke-dasharray:none;stroke-opacity:1"
             id="rect6-9-4-4-4-8-5"
             width="19.886095"
             height="32.279171"
             x="104.82491"
             y="-91.654999"
             transform="matrix(0.89804448,0.43990466,0,-1,0,0)" /></g><path
           id="path2-8"
           style="fill:#ffffff;fill-opacity:1;stroke-width:0.818718"
           inkscape:transform-center-y="2.8797452"
           d="m -19.730483,168.50312 v 6.10892 l 15.467823,10.75267 8.347183,5.80276 v 7.92783 h 14.240599 v -7.92783 l 8.347136,-5.80276 15.467099,-10.75267 v -6.10892 z"
           sodipodi:nodetypes="ccccccccccc"
           inkscape:transform-center-x="1.1612951e-06" /><path
           style="fill:#f5f5f5;fill-opacity:1;stroke:none;stroke-width:3.73652;stroke-dasharray:none;stroke-opacity:1"
           d="m 4.084524,199.0953 14.240587,-1e-5 v -7.92782 l 23.814246,-16.5554 -44.520984,12.06029 6.46615,4.49511 z"
           id="path6-0"
           sodipodi:nodetypes="ccccccc" /><g
           id="g18"
           transform="translate(-123.9187,-8.24741)"
           style="stroke-width:3.92434"><rect
             style="fill:#ffffff;fill-opacity:1;stroke:none;stroke-width:3.91692;stroke-dasharray:none;stroke-opacity:1"
             id="rect18"
             width="27.832821"
             height="50.195873"
             x="274.39807"
             y="286.69638"
             transform="matrix(0.99885331,-0.04787561,-0.58163815,0.81344764,0,0)" /><rect
             style="fill:#ffffff;fill-opacity:1;stroke:none;stroke-width:3.91692;stroke-dasharray:none;stroke-opacity:1"
             id="rect18-8"
             width="27.832821"
             height="50.195873"
             x="334.96649"
             y="295.30591"
             transform="matrix(0.99885331,-0.04787561,-0.58163815,0.81344764,0,0)" /><path
             id="rect18-7"
             style="fill:#f5f5f5;fill-opacity:1;stroke-width:3.46968"
             d="m 135.13077,218.74301 27.80091,5.5471 -29.19584,40.83125 -27.80091,-5.5471 z"
             sodipodi:nodetypes="ccccc" /></g><path
           style="fill:#f5be5a;fill-opacity:1;stroke:none;stroke-width:1.5614;stroke-dasharray:none;stroke-opacity:1"
           d="m 15.218797,202.11119 c -0.815994,4.52541 -3.840955,7.91876 -0.162518,7.87668 3.997306,-0.0457 1.906848,-3.73359 0.162518,-7.87668 z"
           id="path7-5-80"
           sodipodi:nodetypes="csc" /><path
           style="fill:#f5be5a;fill-opacity:1;stroke:none;stroke-width:1.5614;stroke-dasharray:none;stroke-opacity:1"
           d="m 12.404141,215.27055 c -0.815983,4.52542 -3.84096,7.91878 -0.162507,7.87669 3.997295,-0.0457 1.906848,-3.73358 0.162507,-7.87669 z"
           id="path7-5-7-0"
           sodipodi:nodetypes="csc" /><path
           style="fill:#f5be5a;fill-opacity:1;stroke:none;stroke-width:3.73652;stroke-dasharray:none;stroke-opacity:1"
           d="m 4.084518,199.09531 h 5.057609 c 0,0 -2.617965,4.33923 -4.149282,2.68638 -1.531316,-1.65284 -0.908327,-2.68638 -0.908327,-2.68638 z"
           id="path9-6"
           sodipodi:nodetypes="ccsc" /><path
           style="fill:#f5be5a;fill-opacity:1;stroke:none;stroke-width:1.03108;stroke-dasharray:none;stroke-opacity:1"
           d="m 6.284887,208.62232 c 0.507834,3.17088 2.390396,5.54854 0.101191,5.51905 -2.487696,-0.032 -1.186716,-2.61606 -0.101191,-5.51905 z"
           id="path7-5-8-8"
           sodipodi:nodetypes="csc" /><path
           style="fill:url(#radialGradient19);fill-opacity:1;stroke:none;stroke-width:3.00212;stroke-dasharray:none;stroke-opacity:1"
           d="m 22.713604,238.83786 c -8.572606,-4.39238 -8.363955,-16.58951 7.182456,-10.04488 7.099703,-0.40633 8.56856,6.26077 -7.182456,10.04488 z"
           id="path16"
           sodipodi:nodetypes="ccc" /><path
           style="fill:url(#radialGradient21);fill-opacity:1;stroke:none;stroke-width:3.00212;stroke-dasharray:none;stroke-opacity:1"
           d="m -2.318132,229.41821 c -24.087947,6.10998 -9.232632,-5.74542 6.777871,-9.53817 2.352555,1.13845 7.01975,6.26961 5.246929,5.7952 -6.559363,-1.75531 -7.00872,5.67074 -12.0248,3.74297 z"
           id="path17"
           sodipodi:nodetypes="ccsc" /><path
           style="fill:url(#radialGradient25);fill-opacity:1;stroke:none;stroke-width:4.45145;stroke-dasharray:none;stroke-opacity:1"
           d="m 11.562582,242.31066 c 5.899814,-3.67489 28.491085,-12.32566 14.642503,-14.21481 -43.352059,-7.42166 -27.983902,22.52492 -14.642503,14.21481 z"
           id="path18"
           sodipodi:nodetypes="sss" /></g></g></g></svg>
